<?xml version="1.0" encoding="UTF-8" standalone="no"?>
<svg
   xmlns:dc="http://purl.org/dc/elements/1.1/"
   xmlns:cc="http://creativecommons.org/ns#"
   xmlns:rdf="http://www.w3.org/1999/02/22-rdf-syntax-ns#"
   xmlns:svg="http://www.w3.org/2000/svg"
   xmlns="http://www.w3.org/2000/svg"
   xmlns:sodipodi="http://sodipodi.sourceforge.net/DTD/sodipodi-0.dtd"
   xmlns:inkscape="http://www.inkscape.org/namespaces/inkscape"
   width="34mm"
   height="34mm"
   viewBox="0 0 34 34.000004"
   version="1.1"
   id="svg13265"
   inkscape:export-filename="C:\Users\vanes\Dropbox\#zoWeb Dev\Projects\2. Caliban's Island Tours\Images\branch-white.png"
   inkscape:export-xdpi="96"
   inkscape:export-ydpi="96"
   inkscape:version="1.0.2-2 (e86c870879, 2021-01-15)"
   sodipodi:docname="favicon.svg">
  <defs
     id="defs13259">
    <inkscape:path-effect
       effect="bspline"
       id="path-effect10123"
       is_visible="true"
       lpeversion="1"
       weight="33.333333"
       steps="2"
       helper_size="0"
       apply_no_weight="true"
       apply_with_weight="true"
       only_selected="false" />
  </defs>
  <sodipodi:namedview
     id="base"
     pagecolor="#ffffff"
     bordercolor="#666666"
     borderopacity="1.0"
     inkscape:pageopacity="0.0"
     inkscape:pageshadow="2"
     inkscape:zoom="1.4"
     inkscape:cx="357.48716"
     inkscape:cy="251.75994"
     inkscape:document-units="mm"
     inkscape:current-layer="layer7"
     inkscape:document-rotation="0"
     showgrid="false"
     inkscape:window-width="1920"
     inkscape:window-height="1009"
     inkscape:window-x="-8"
     inkscape:window-y="-8"
     inkscape:window-maximized="1"
     units="mm" />
  <metadata
     id="metadata13262">
    <rdf:RDF>
      <cc:Work
         rdf:about="">
        <dc:format>image/svg+xml</dc:format>
        <dc:type
           rdf:resource="http://purl.org/dc/dcmitype/StillImage" />
        <dc:title />
      </cc:Work>
    </rdf:RDF>
  </metadata>
  <g
     inkscape:groupmode="layer"
     id="layer7"
     inkscape:label="trace">
    <path
       style="fill:#d38d5f;fill-opacity:1;stroke:none;stroke-width:0.264583px;stroke-linecap:butt;stroke-linejoin:miter;stroke-opacity:1"
       d="m 8.8437339,33.379739 c 0.1608159,-0.253594 0.4824603,-0.760801 0.7051348,-1.212329 0.2226745,-0.451528 0.3463826,-0.847385 0.4267919,-1.267995 0.080409,-0.42061 0.1175124,-0.86595 0.2226594,-1.237075 0.105147,-0.371124 0.278334,-0.668016 0.408245,-0.872154 0.12991,-0.204139 0.216475,-0.315434 0.303072,-0.667994 0.0866,-0.352561 0.173187,-0.946352 0.253596,-1.373151 0.08041,-0.426799 0.154635,-0.686576 0.142272,-0.964903 -0.01236,-0.278327 -0.111332,-0.575237 -0.185561,-0.909252 -0.07423,-0.334016 -0.123709,-0.705115 -0.222668,-1.039126 -0.09896,-0.334012 -0.247406,-0.630908 -0.34019,-0.940182 -0.09278,-0.309275 -0.12989,-0.630915 -0.08659,-0.865969 0.0433,-0.235053 0.167004,-0.383498 0.371124,-0.538133 0.204119,-0.154636 0.488653,-0.31546 0.754627,-0.451539 0.265975,-0.13608 0.513375,-0.24741 0.7113,-0.414409 0.197925,-0.166999 0.34637,-0.389666 0.50101,-0.729866 0.154639,-0.3402 0.315457,-0.797911 0.47009,-1.181404 0.154634,-0.383493 0.30308,-0.69276 0.402044,-0.921611 0.09896,-0.228852 0.148453,-0.377315 0.315468,-0.531957 0.167015,-0.154641 0.451531,-0.315459 0.680385,-0.519574 0.228853,-0.204115 0.402041,-0.451526 0.562861,-0.760791 0.16082,-0.309265 0.309267,-0.680376 0.507201,-1.16284 0.197933,-0.482464 0.445344,-1.076254 0.705131,-1.571089 0.259787,-0.494836 0.531937,-0.890689 0.83503,-1.175223 0.303094,-0.284533 0.637093,-0.457714 1.057704,-0.587607 0.42061,-0.129892 0.927822,-0.216492 1.405284,-0.331235 0.477462,-0.114743 0.925193,-0.257629 1.310883,-0.447167 0.38569,-0.189538 0.709335,-0.425715 0.963008,-0.692507 0.253673,-0.2667921 0.437365,-0.564191 0.612318,-0.88785 0.174953,-0.3236591 0.341149,-0.6735464 0.49423,-0.9709642 0.153082,-0.2974178 0.293038,-0.5423441 0.48986,-0.7479137 0.196822,-0.2055695 0.450495,-0.3717741 0.752277,-0.708547 0.301782,-0.3367728 0.651678,-0.8441186 0.80039,-1.1196585 0.148712,-0.2755399 0.09625,-0.3192567 0.0088,-0.2536601 -0.08749,0.065596 -0.209951,0.2405289 -0.371783,0.4504704 -0.161832,0.2099415 -0.363019,0.4548641 -0.529204,0.5948231 -0.166186,0.139959 -0.297396,0.174959 -0.376124,0.1356398 -0.07873,-0.039319 -0.104973,-0.1530819 -0.12684,-0.2886622 -0.02187,-0.1355803 -0.03937,-0.2930314 -0.03062,-0.5160962 0.0088,-0.2230647 0.04375,-0.5117243 0.131233,-0.774155 0.08748,-0.2624306 0.227434,-0.4986085 0.516104,-0.7785328 0.288671,-0.2799244 0.726041,-0.6035744 1.071563,-0.8878642 0.345522,-0.2842899 0.599195,-0.5292166 0.804759,-0.7566491 0.205564,-0.2274326 0.363013,-0.4373634 0.568579,-0.7304069 0.205565,-0.2930434 0.459232,-0.669176 0.629805,-0.91847784 0.170573,-0.24930179 0.258049,-0.37176495 0.249287,-0.43299702 -0.0088,-0.0612321 -0.113672,-0.0612321 -0.236147,0.0393658 -0.122476,0.10059785 -0.262433,0.30178942 -0.419891,0.52922444 -0.157457,0.22743504 -0.332403,0.48109774 -0.559838,0.73040064 -0.227436,0.2493029 -0.507342,0.4942269 -0.817876,0.7391563 -0.310533,0.2449293 -0.651679,0.4898537 -0.962215,0.7129134 -0.310535,0.2230597 -0.590447,0.4242466 -0.82226,0.6735534 -0.231813,0.2493068 -0.415512,0.5467151 -0.5511,0.8441421 -0.135587,0.2974271 -0.223052,0.5948211 -0.253665,0.8791245 -0.03061,0.2843034 -0.0044,0.5554604 -0.0044,0.8003818 -2e-6,0.2449214 -0.02624,0.4636192 -0.205561,0.8441289 -0.179324,0.3805097 -0.511719,0.9228357 -0.831003,1.4039446 -0.319283,0.4811089 -0.625434,0.9009689 -0.975324,1.1721367 -0.349891,0.2711679 -0.743519,0.3936329 -1.110909,0.4723679 -0.36739,0.07874 -0.70853,0.113734 -0.8966,0.122495 -0.18807,0.0088 -0.22303,-0.0087 -0.166217,-0.100589 0.05681,-0.09187 0.205514,-0.25807 0.367347,-0.4242788 0.161833,-0.1662093 0.336774,-0.3324078 0.507353,-0.4767421 0.170578,-0.1443343 0.336786,-0.2667975 0.459225,-0.3848573 0.12244,-0.1180598 0.201195,-0.2318266 0.288666,-0.4198862 0.08747,-0.1880595 0.183698,-0.4504853 0.262429,-0.6691814 0.07873,-0.218696 0.139952,-0.393625 0.223073,-0.5248608 0.08312,-0.1312358 0.188048,-0.2186734 0.240536,-0.2886626 0.05249,-0.069989 0.05249,-0.1223793 0.01318,-0.1442986 -0.03931,-0.021919 -0.118114,-0.013177 -0.253717,0.1224052 -0.135602,0.1355825 -0.328045,0.3980009 -0.4855,0.6735507 -0.157455,0.2755499 -0.279911,0.5642003 -0.599194,0.918471 -0.319282,0.3542707 -0.835374,0.7741408 -1.246502,1.1065427 -0.411129,0.3324022 -0.717283,0.5773262 -1.058436,0.8528742 -0.341154,0.275547 -0.717288,0.581702 -1.005954,0.887864 -0.288667,0.306161 -0.489857,0.612321 -0.712918,0.865997 -0.223062,0.253676 -0.467981,0.454857 -0.673553,0.813515 -0.205572,0.358657 -0.371769,0.874748 -0.533594,1.316492 -0.161825,0.441743 -0.319276,0.809137 -0.50297,1.062806 -0.183694,0.253669 -0.39363,0.393623 -0.529176,0.433027 -0.135546,0.0394 -0.196836,-0.02189 -0.275571,-0.214325 -0.07873,-0.192438 -0.174955,-0.516095 -0.227436,-0.835368 -0.05248,-0.319273 -0.06121,-0.634201 -0.0131,-0.909756 0.04812,-0.275554 0.15309,-0.511729 0.314919,-0.774154 0.16183,-0.262424 0.38051,-0.551084 0.621067,-0.848499 0.240556,-0.297416 0.502982,-0.603579 0.778525,-0.93598 0.275542,-0.332401 0.564199,-0.691036 0.787262,-0.979706 0.223064,-0.28867 0.380511,-0.5073423 0.481107,-0.7085269 0.100596,-0.2011846 0.144329,-0.3848805 0.157449,-0.6035627 0.01312,-0.2186821 -0.0044,-0.472359 0.06997,-0.7785304 0.07435,-0.3061714 0.240542,-0.6647999 0.411123,-0.9578484 0.170581,-0.2930486 0.345524,-0.5204735 0.625452,-0.7654086 0.279927,-0.2449351 0.664796,-0.5073465 0.914102,-0.730413 0.249305,-0.2230666 0.363003,-0.4067353 0.49859,-0.7347656 0.135587,-0.3280302 0.293043,-0.8003916 0.402389,-1.1240536 0.109345,-0.3236619 0.170568,-0.4985871 0.205548,-0.6341348 0.03498,-0.1355477 0.04372,-0.2318367 0.01312,-0.266853 -0.0306,-0.035016 -0.100629,-0.00877 -0.183736,0.083084 -0.08311,0.091849 -0.179321,0.2492871 -0.319283,0.5598297 -0.139961,0.3105425 -0.323653,0.7741459 -0.489853,1.071556 -0.166201,0.2974101 -0.314899,0.428613 -0.647304,0.6691678 -0.332405,0.2405549 -0.848503,0.5904487 -1.15905,0.8266467 -0.310547,0.2361981 -0.415487,0.3586329 -0.502956,0.4942118 -0.08747,0.1355788 -0.157455,0.2842993 -0.288669,0.7654176 -0.131214,0.4811183 -0.323656,1.2946179 -0.459237,1.7144772 -0.135581,0.4198593 -0.21431,0.4460923 -0.607956,0.8441046 -0.393646,0.398012 -1.10217,1.167769 -1.609524,1.753851 -0.507354,0.586083 -0.813511,0.988458 -1.005956,1.298995 -0.192444,0.310536 -0.271169,0.529215 -0.306168,0.686618 -0.035,0.157404 -0.02626,0.253743 0.02186,0.398083 0.04811,0.144341 0.135579,0.336772 0.196813,0.638559 0.06123,0.301787 0.09624,0.712907 0.07437,1.141534 -0.02187,0.428628 -0.100594,0.874728 -0.179323,1.229001 -0.07873,0.354273 -0.157459,0.616704 -0.297413,0.874742 -0.139955,0.258037 -0.341142,0.51171 -0.629805,0.730396 -0.288664,0.218686 -0.664799,0.402376 -1.0540624,0.59482 -0.3892633,0.192443 -0.791643,0.393633 -1.1196765,0.73042 -0.3280335,0.336787 -0.5817026,0.809143 -0.7216547,1.119681 -0.1399521,0.310537 -0.1661869,0.459249 -0.09182,0.765413 0.074367,0.306164 0.2493125,0.769776 0.419886,1.202771 0.1705736,0.432996 0.33677,0.835368 0.4154973,1.228996 0.078727,0.393627 0.069994,0.778522 -0.048094,1.456454 -0.1180875,0.677932 -0.3455175,1.648882 -0.5991965,2.506135 -0.2536791,0.857253 -0.5335882,1.600764 -0.7304034,2.108109 -0.1968152,0.507346 -0.3105332,0.77852 -0.3192749,1.036572 -0.00874,0.258053 0.087485,0.503 0.2668126,0.756672 0.1793278,0.253672 0.4417476,0.516092 0.6602876,0.708247 0.21854,0.192155 0.3931835,0.31404 0.4804916,0.374972 0.087308,0.06093 0.087258,0.061 0.2480741,-0.192591 z"
       id="path10121"
       inkscape:path-effect="#path-effect10123"
       inkscape:original-d="m 8.6829179,33.633333 c 0.3216597,-0.50717 0.6432997,-1.01438 0.9649194,-1.5216 0.12374,-0.39584 0.24744,-0.7917 0.3711297,-1.18759 0.0372,-0.44533 0.0743,-0.89067 0.11131,-1.33603 0.17322,-0.29688 0.34641,-0.59377 0.51957,-0.89069 0.0867,-0.11132 0.17322,-0.22265 0.2598,-0.33402 0.0866,-0.59377 0.1732,-1.18756 0.25977,-1.78138 0.0743,-0.25976 0.14848,-0.51955 0.22268,-0.77935 -0.0989,-0.29688 -0.1979,-0.59378 -0.2969,-0.8907 -0.0495,-0.3711 -0.0989,-0.74221 -0.14845,-1.11336 -0.14842,-0.29687 -0.29686,-0.59377 -0.44534,-0.89069 -0.0371,-0.32162 -0.0743,-0.64325 -0.11132,-0.96492 0.12374,-0.14842 0.24745,-0.29686 0.37112,-0.44534 0.28455,-0.16079 0.56908,-0.32162 0.85358,-0.48246 0.24745,-0.11131 0.49485,-0.22264 0.74224,-0.33401 0.14848,-0.22264 0.29692,-0.44531 0.44535,-0.66802 0.16085,-0.4577 0.32167,-0.91541 0.48246,-1.37315 0.14848,-0.30924 0.29692,-0.61851 0.44534,-0.9278 0.0495,-0.14842 0.099,-0.29688 0.14845,-0.44534 0.28456,-0.16081 0.56908,-0.32162 0.85358,-0.48247 0.17322,-0.24739 0.34641,-0.4948 0.51957,-0.74224 0.14848,-0.3711 0.29693,-0.74221 0.44535,-1.11336 0.24744,-0.59378 0.49485,-1.18757 0.74224,-1.78139 0.27219,-0.39584 0.54433,-0.7917 0.81647,-1.18759 0.33404,-0.17316 0.66804,-0.34634 1.00203,-0.51956 0.50723,-0.0865 1.01443,-0.17317 1.52159,-0.25979 0.44777,-0.14286 0.8955,-0.28575 1.3432,-0.42866 0.32369,-0.23617 0.64734,-0.47234 0.97097,-0.70856 0.18372,-0.2973803 0.36741,-0.5947803 0.55109,-0.8922205 0.16623,-0.34988 0.33242,-0.69977 0.4986,-1.049689 0.13999,-0.24491 0.27994,-0.48984 0.41987,-0.73478 0.25371,-0.16618 0.50738,-0.33239 0.76103,-0.49862 0.34993,-0.50732 0.69982,-1.01467 1.04969,-1.52204 -0.0525,-0.0437 -0.10489,-0.0875 -0.15745,-0.13121 -0.12244,0.17498 -0.2449,0.34991 -0.3674,0.52484 -0.20116,0.24496 -0.40235,0.48988 -0.60357,0.73478 -0.13118,0.035 -0.26239,0.07 -0.39363,0.105 -0.0262,-0.11365 -0.0525,-0.2274 -0.0787,-0.34114 -0.0174,-0.15744 -0.035,-0.31488 -0.0525,-0.47236 0.035,-0.28865 0.07,-0.57731 0.10501,-0.86599 0.13999,-0.23616 0.27994,-0.47234 0.41987,-0.70855 0.4374,-0.32363 0.87477,-0.64728 1.31211,-0.97095 0.25371,-0.24491 0.50738,-0.48984 0.76103,-0.73479 0.15748,-0.20992 0.31493,-0.41985 0.47236,-0.62981 0.2537,-0.37613 0.50737,-0.75226 0.76102,-1.12842998 0.0875,-0.12243 0.17498,-0.24489 0.26242,-0.36738005 -0.105,2e-5 -0.20991,2e-5 -0.3149,0 -0.13994,0.20121005 -0.2799,0.40240005 -0.41987,0.60357005 -0.17493,0.25370998 -0.34988,0.50736998 -0.52486,0.76101998 -0.27989,0.24497 -0.5598,0.48989 -0.83974,0.73479 -0.34113,0.24496 -0.68228,0.48988 -1.02345,0.73478 -0.2799,0.20122 -0.55981,0.40241 -0.83975,0.60357 -0.18368,0.29744 -0.36736,0.59486 -0.5511,0.89223 -0.0875,0.29745 -0.17491,0.59486 -0.26241,0.89224 0.0263,0.27121 0.0525,0.54237 0.0787,0.81352 -0.0262,0.2187 -0.0525,0.43739 -0.0787,0.65605 -0.33239,0.54238 -0.66478,1.084709 -0.99721,1.627019 -0.30614,0.41991 -0.61229,0.8397702 -0.91848,1.2596202 -0.39361,0.1225003 -0.78724,0.2449603 -1.1809,0.3674003 -0.34113,0.035 -0.68227,0.07 -1.02345,0.105 -0.035,-0.0174 -0.0699,-0.035 -0.105,-0.0525 0.14873,-0.16618 0.29743,-0.33238 0.44611,-0.4986003 0.17499,-0.16619 0.34993,-0.33239 0.52485,-0.4986202 0.16623,-0.12244 0.33244,-0.2449 0.49861,-0.36738 0.0787,-0.11366 0.15748,-0.22741 0.23617,-0.34116 0.0962,-0.2624 0.19247,-0.52481 0.28867,-0.787249 0.0613,-0.17494 0.12249,-0.34988 0.18369,-0.52486 0.10501,-0.0875 0.20996,-0.17491 0.31491,-0.26242 2e-5,-0.0525 2e-5,-0.10489 0,-0.15745 -0.0787,0.008 -0.15742,0.0175 -0.23618,0.0262 -0.19242,0.26245 -0.38486,0.52487 -0.57733,0.78726 -0.12244,0.2887 -0.2449,0.577349 -0.36739,0.865999 -0.51607,0.41992 -1.03217,0.8397802 -1.5483,1.2596302 -0.30613,0.2449503 -0.61228,0.4898803 -0.91847,0.7347803 -0.37612,0.30619 -0.75225,0.61235 -1.12842,0.91848 -0.20116,0.30618 -0.40235,0.61234 -0.60357,0.91848 -0.24491,0.20122 -0.48983,0.4024 -0.73479,0.60357 -0.16617,0.51613 -0.33237,1.03222 -0.4986,1.5483 -0.15742,0.36741 -0.31488,0.7348 -0.47235,1.10217 -0.20992,0.13999 -0.41986,0.27994 -0.62982,0.41987 -0.0612,-0.0611 -0.12244,-0.12244 -0.1837,-0.1837 -0.0962,-0.32362 -0.19241,-0.64728 -0.28866,-0.97096 -0.008,-0.31488 -0.0174,-0.62979 -0.0262,-0.94472 0.10501,-0.23616 0.20997,-0.47234 0.31492,-0.70854 0.21871,-0.28864 0.43739,-0.5773 0.65605,-0.86599 0.26245,-0.30614 0.52488,-0.6123 0.78727,-0.91848 0.2887,-0.35862 0.57735,-0.71726 0.86599,-1.07593 0.15749,-0.21867 0.31494,-0.4373403 0.47237,-0.6560603 0.0437,-0.18368 0.0875,-0.3673602 0.1312,-0.5510802 -0.0174,-0.25366 -0.035,-0.50733 -0.0525,-0.76103 0.16623,-0.358629 0.33242,-0.717259 0.4986,-1.075929 0.17498,-0.22742 0.34993,-0.45484 0.52485,-0.6823 0.38492,-0.26241 0.76979,-0.52482 1.15466,-0.78727 0.11377,-0.18368 0.22745,-0.36736 0.34114,-0.55108 0.15748,-0.47235 0.31494,-0.94471 0.47237,-1.41709 0.0613,-0.17493 0.12248,-0.34987 0.18369,-0.52484 0.008,-0.0962 0.0175,-0.19242 0.0262,-0.28867 -0.0699,0.0263 -0.13995,0.0525 -0.20995,0.0787 -0.0962,0.15748 -0.19241,0.31492 -0.28866,0.47235 -0.18367,0.46365 -0.36737,0.92725 -0.55109,1.39085 -0.14868,0.13124 -0.29739,0.26243 -0.44612,0.39363 -0.51607,0.34993 -1.03217,0.69982 -1.54829,1.04968 -0.105,0.1225 -0.20991,0.24496 -0.3149,0.3674 -0.0699,0.14873 -0.13993,0.29743 -0.20994,0.44612 -0.19242,0.813539 -0.38486,1.627039 -0.57733,2.4405192 -0.0787,0.0263 -0.15744,0.0525 -0.23619,0.0787 -0.70853,0.7698103 -1.41705,1.5395703 -2.12561,2.3093103 -0.30615,0.40242 -0.6123,0.8048 -0.91849,1.20715 -0.0787,0.21871 -0.15742,0.43739 -0.23618,0.65605 0.008,0.0962 0.0175,0.19247 0.0262,0.28867 0.0875,0.19248 0.17497,0.38491 0.26242,0.57733 0.035,0.41116 0.07,0.82228 0.10501,1.23338 -0.0787,0.44616 -0.15743,0.89226 -0.23619,1.33836 -0.0787,0.26245 -0.15743,0.52488 -0.23618,0.78727 -0.20116,0.2537 -0.40235,0.50737 -0.60357,0.76103 -0.37612,0.18372 -0.75226,0.3674 -1.1284197,0.55108 -0.40236,0.20122 -0.8047397,0.40241 -1.2071394,0.60357 -0.25365,0.4724 -0.5073297,0.94475 -0.7610197,1.41709 -0.0262,0.14873 -0.0525,0.29743 -0.0787,0.44611 0.17497,0.46365 0.34992,0.92726 0.5248397,1.39084 0.16623,0.40241 0.33243,0.80478 0.4985997,1.20714 -0.008,0.38492 -0.0174,0.7698 -0.0262,1.15466 -0.2274097,0.97101 -0.4548397,1.94196 -0.6822994,2.91289 -0.2799,0.74358 -0.5598097,1.48709 -0.8397497,2.23059 -0.1136497,0.27121 -0.2273997,0.54237 -0.3411497,0.81351 0.0962,0.24496 0.19247,0.48989 0.2886597,0.73479 0.26245,0.26245 0.5248797,0.52486 0.7872697,0.78727 0.17468,0.12191 0.3493197,0.2438 0.5239397,0.36566 z"
       inkscape:export-filename="C:\Users\vanes\Dropbox\#zoWeb Dev\Projects\2. Caliban's Island Tours\Images\branch-white.png"
       inkscape:export-xdpi="96"
       inkscape:export-ydpi="96" />
  </g>
</svg>
